PathFileType	4	(x/y/z)	S02_PSF_T05
DataRate	CameraRate	NumFrames	NumMarkers	Units	OrigDataRate	OrigDataStartFrame	OrigNumFrames
240	240	8	51	mm	240	154	410
Frame#	Time	Sternum			R.Acromium			L.Acromium			Top.Head			R.ASIS			L.ASIS			R.PSIS			L.PSIS			R.Great.Tro			L.Great.Tro			R.Iliac.Crest			L.Iliac.Crest			V.Sacral			R.Thigh.Upper.Post			R.Thigh.Lower.Ant			R.Thigh.Lower.Post			R.Thigh.Upper.Ant			R.Knee.Lat			R.Knee.Med			R.Shank.Upper.Post			R.Shank.Lower.Ant			R.Shank.Lower.Post			R.Shank.Upper.Ant			R.Ankle.Lat			R.Ankle.Med			R.Heel.Upper			R.Heel.Med			R.Heel.Lat			R.Toe.Lat			R.Toe.Med			R.Toe.Tip			L.Thigh.Upper.Post			L.Thigh.Lower.Ant			L.Thigh.Lower.Post			L.Thigh.Upper.Ant			L.Knee.Lat			L.Knee.Med			L.Shank.Upper.Post			L.Shank.Lower.Ant			L.Shank.Lower.Post			L.Shank.Upper.Ant			L.Ankle.Lat			L.Ankle.Med			L.Heel.Upper			L.Heel.Med			L.Heel.Lat			L.Toe.Lat			L.Toe.Med			L.Toe.Tip			Cervical.Spine			Back			
		X1	Y1	Z1	X2	Y2	Z2	X3	Y3	Z3	X4	Y4	Z4	X5	Y5	Z5	X6	Y6	Z6	X7	Y7	Z7	X8	Y8	Z8	X9	Y9	Z9	X10	Y10	Z10	X11	Y11	Z11	X12	Y12	Z12	X13	Y13	Z13	X14	Y14	Z14	X15	Y15	Z15	X16	Y16	Z16	X17	Y17	Z17	X18	Y18	Z18	X19	Y19	Z19	X20	Y20	Z20	X21	Y21	Z21	X22	Y22	Z22	X23	Y23	Z23	X24	Y24	Z24	X25	Y25	Z25	X26	Y26	Z26	X27	Y27	Z27	X28	Y28	Z28	X29	Y29	Z29	X30	Y30	Z30	X31	Y31	Z31	X32	Y32	Z32	X33	Y33	Z33	X34	Y34	Z34	X35	Y35	Z35	X36	Y36	Z36	X37	Y37	Z37	X38	Y38	Z38	X39	Y39	Z39	X40	Y40	Z40	X41	Y41	Z41	X42	Y42	Z42	X43	Y43	Z43	X44	Y44	Z44	X45	Y45	Z45	X46	Y46	Z46	X47	Y47	Z47	X48	Y48	Z48	X49	Y49	Z49	X50	Y50	Z50	X51	Y51	Z51	

154	0.6375	-657.61	1059.3	368.33	-771.74	1297.7	510.19	-747	1304.1	219.9	-718.46	1592.5	370.27	-677.17	904.42	457.29	-689.64	889.27	242.22	-898.03	936.99	418.23	-909.67	942.68	346.79	-731.22	790.02	550.47	-835.74	802.18	166.92	-782.94	942.46	523.7	-818.51	939.27	189.79	-927.56	891.06	378.79	-647.52	600.85	523.71	-572.23	551.86	475.1	-630.7	515.18	498.97	-593.69	636.32	497.74	-586.14	454.43	479.07	-606.18	442.04	335.26	-614.82	239.23	461.19	-525.18	179.26	437.14	-591.09	170.35	448.86	-542.97	245.33	455.08	-552.67	87.257	433.94	-548.86	102.47	349.42	-612.17	67.344	380.19	-595.57	36.944	352.66	-603.59	37.404	416.64	-441.92	48.052	451.73	-414.11	48.528	344.9	-368.45	82.08	398.19	-907.62	595.32	208.14	-850.97	500.38	200.6	-925.36	508.44	229.22	-839.46	593.49	182.11	-891.32	425.6	211.92	-879.97	420.07	349.19	-1056.5	327.94	224.79	-1050.2	217.81	235.21	-1100.7	270.69	242.08	-1009.3	282.27	218.38	-1144.8	155.37	254.74	-1134.5	153.76	335.75	-1214.6	156.25	289.58	-1218.2	135.4	326.73	-1224	125.74	265.8	-1086.7	36.052	245.36	-1065.8	49.765	353.21	-1006.7	47.309	311.28	-838.17	1370.5	362.91	-916.15	1118.8	353.55
155	0.64167	-651.54	1059.6	368.73	-765.63	1297.5	510.97	-741.62	1304.4	220.7	-712.8	1592.6	371.14	-671	904.56	457.75	-683.32	889.3	242.82	-891.89	937.02	418.26	-903.12	942.48	346.8	-724.75	790.42	550.84	-829.04	801.51	167.11	-776.86	942.57	524.04	-811.84	939.38	189.93	-921.31	891.02	378.84	-641.06	601.34	523.53	-565.84	552.34	474.86	-624.28	515.65	498.83	-587.27	636.81	497.53	-579.69	454.85	478.73	-600.72	442.44	335.27	-610.77	239.74	461.48	-522.17	178.58	436.63	-588.07	170.53	448.99	-538.92	244.86	454.66	-551.45	87.085	433.77	-547.64	102.09	349.24	-611.48	67.966	380.12	-595.33	37.265	352.61	-603.33	37.965	416.61	-441.29	46.669	451.5	-413.46	46.21	344.54	-367.21	79.248	397.7	-899.79	594.22	208.23	-842.58	499.68	199.92	-916.95	507.12	228.96	-831.72	592.96	181.92	-882.78	424.87	210.87	-870.72	418.62	348.08	-1049.4	329.8	224.21	-1044.9	219.56	234.01	-1094.5	273.17	241.48	-1003	283.41	217.34	-1140.2	158.39	253.71	-1129.6	156.7	334.63	-1209.5	161.43	288.6	-1213.8	141.11	325.98	-1220	131.14	265.08	-1085.8	36.999	245.1	-1064.6	50.816	352.85	-1006.1	46.857	311.14	-832.71	1370.6	363.98	-910.21	1118.7	354.45
156	0.64583	-645.49	1060	369.12	-759.53	1297.4	511.74	-736.25	1304.7	221.51	-707.13	1592.7	372.01	-664.85	904.79	458.22	-677.03	889.39	243.44	-885.76	937.13	418.28	-896.62	942.35	346.8	-718.27	790.92	551.22	-822.31	800.84	167.3	-770.8	942.78	524.38	-805.2	939.55	190.08	-915.09	891.05	378.9	-634.62	601.92	523.41	-559.48	552.89	474.68	-617.87	516.2	498.79	-580.89	637.38	497.35	-573.25	455.3	478.43	-595.28	442.9	335.33	-606.81	240.28	461.85	-519.27	177.94	436.17	-585.15	170.76	449.18	-534.97	244.43	454.29	-550.33	86.96	433.65	-546.53	101.79	349.1	-610.85	68.544	380.08	-595.11	37.586	352.58	-603.09	38.482	416.6	-440.74	45.465	451.31	-412.9	44.148	344.24	-366.11	76.707	397.27	-891.83	593.08	208.26	-833.99	498.99	199.2	-908.36	505.77	228.63	-823.84	592.43	181.69	-874.02	424.14	209.76	-861.21	417.16	346.89	-1042	331.7	223.61	-1039.4	221.39	232.79	-1088	275.71	240.87	-996.41	284.6	216.26	-1135.2	161.51	252.65	-1124.5	159.72	333.51	-1203.9	166.76	287.59	-1209	147.01	325.22	-1215.6	136.75	264.32	-1084.9	38.115	244.82	-1063.2	51.986	352.48	-1005.4	46.366	310.95	-827.19	1370.6	365.04	-904.3	1118.7	355.34
157	0.65	-639.48	1060.4	369.51	-753.44	1297.4	512.49	-730.9	1305.1	222.31	-701.46	1593	372.87	-658.74	905.12	458.68	-670.79	889.56	244.07	-879.66	937.3	418.3	-890.18	942.29	346.79	-711.79	791.52	551.59	-815.55	800.17	167.51	-764.76	943.08	524.7	-798.58	939.78	190.24	-908.89	891.14	378.97	-628.22	602.57	523.37	-553.17	553.51	474.55	-611.49	516.81	498.83	-574.55	638.02	497.2	-566.85	455.78	478.17	-589.87	443.44	335.43	-602.96	240.85	462.28	-516.5	177.34	435.75	-582.34	171.02	449.42	-531.15	244.03	453.98	-549.3	86.873	433.56	-545.54	101.56	349.01	-610.3	69.073	380.08	-594.92	37.901	352.57	-602.88	38.952	416.61	-440.25	44.431	451.16	-412.41	42.335	343.97	-365.14	74.451	396.9	-883.73	591.91	208.23	-825.24	498.31	198.43	-899.6	504.4	228.23	-815.84	591.92	181.43	-865.06	423.41	208.59	-851.45	415.69	345.63	-1034.3	333.63	223	-1033.7	223.29	231.55	-1081.1	278.29	240.25	-989.61	285.84	215.17	-1130	164.72	251.59	-1119.1	162.81	332.38	-1198	172.22	286.57	-1203.8	153.08	324.43	-1210.7	142.57	263.52	-1083.9	39.411	244.54	-1061.6	53.282	352.07	-1004.6	45.833	310.72	-821.63	1370.8	366.1	-898.4	1118.7	356.22
158	0.65417	-633.5	1060.9	369.89	-747.37	1297.4	513.22	-725.56	1305.6	223.11	-695.79	1593.2	373.73	-652.66	905.55	459.15	-664.59	889.79	244.73	-873.59	937.54	418.33	-883.79	942.29	346.78	-705.33	792.21	551.96	-808.78	799.5	167.74	-758.76	943.47	525.01	-792.02	940.05	190.41	-902.72	891.3	379.05	-621.87	603.26	523.39	-546.92	554.16	474.47	-605.17	517.46	498.95	-568.28	638.7	497.09	-560.52	456.25	477.94	-584.47	444.02	335.58	-599.23	241.42	462.76	-513.86	176.77	435.37	-579.64	171.31	449.7	-527.46	243.64	453.73	-548.37	86.817	433.51	-544.65	101.39	348.96	-609.82	69.552	380.1	-594.75	38.204	352.58	-602.69	39.376	416.63	-439.83	43.556	451.05	-411.99	40.759	343.74	-364.29	72.468	396.59	-875.52	590.73	208.15	-816.33	497.65	197.63	-890.67	502.99	227.76	-807.72	591.42	181.12	-855.91	422.7	207.37	-841.44	414.21	344.31	-1026.3	335.59	222.36	-1027.6	225.27	230.32	-1074	280.92	239.61	-982.56	287.12	214.06	-1124.4	168.01	250.52	-1113.3	165.96	331.24	-1191.7	177.81	285.53	-1198.2	159.31	323.62	-1205.5	148.58	262.68	-1082.7	40.899	244.23	-1059.9	54.706	351.65	-1003.7	45.259	310.44	-816.03	1370.9	367.15	-892.53	1118.8	357.09
159	0.65833	-627.56	1061.5	370.26	-741.3	1297.5	513.94	-720.24	1306.1	223.91	-690.12	1593.5	374.59	-646.6	906.08	459.62	-658.45	890.09	245.39	-867.54	937.84	418.35	-877.46	942.36	346.76	-698.9	792.97	552.32	-801.99	798.83	167.97	-752.79	943.93	525.31	-785.51	940.37	190.6	-896.58	891.5	379.14	-615.58	603.99	523.47	-540.75	554.84	474.44	-598.92	518.14	499.14	-562.07	639.41	497.02	-554.3	456.71	477.75	-579.07	444.65	335.77	-595.64	241.98	463.28	-511.36	176.23	435.04	-577.06	171.61	450.01	-523.91	243.26	453.52	-547.52	86.785	433.5	-543.86	101.26	348.95	-609.39	69.982	380.14	-594.6	38.491	352.61	-602.52	39.752	416.67	-439.47	42.824	450.97	-411.62	39.408	343.55	-363.56	70.743	396.33	-867.2	589.53	208.01	-807.27	497.02	196.78	-881.6	501.58	227.22	-799.5	590.94	180.79	-846.57	422	206.11	-831.18	412.74	342.94	-1018.1	337.58	221.7	-1021.2	227.29	229.08	-1066.7	283.58	238.97	-975.26	288.43	212.94	-1118.5	171.38	249.44	-1107.2	169.15	330.11	-1184.9	183.51	284.47	-1192.2	165.67	322.8	-1199.9	154.76	261.82	-1081.3	42.584	243.92	-1057.9	56.258	351.19	-1002.7	44.643	310.11	-810.38	1371.1	368.19	-886.68	1118.9	357.94
160	0.6625	-621.65	1062.1	370.62	-735.26	1297.7	514.64	-714.93	1306.7	224.7	-684.46	1593.9	375.44	-640.59	906.7	460.09	-652.36	890.45	246.07	-861.52	938.2	418.39	-871.2	942.48	346.75	-692.52	793.8	552.68	-795.19	798.16	168.23	-746.86	944.48	525.59	-779.07	940.72	190.8	-890.48	891.75	379.25	-609.39	604.74	523.61	-534.68	555.51	474.46	-592.78	518.84	499.4	-555.95	640.12	496.98	-548.21	457.12	477.6	-573.67	445.3	335.98	-592.18	242.53	463.81	-508.99	175.71	434.75	-574.62	171.92	450.34	-520.52	242.89	453.36	-546.76	86.771	433.51	-543.15	101.18	348.96	-609.02	70.363	380.2	-594.48	38.758	352.66	-602.37	40.081	416.71	-439.16	42.222	450.91	-411.31	38.264	343.38	-362.94	69.258	396.12	-858.79	588.33	207.82	-798.08	496.42	195.89	-872.39	500.16	226.61	-791.2	590.49	180.42	-837.06	421.32	204.8	-820.68	411.28	341.5	-1009.5	339.58	221.01	-1014.6	229.37	227.86	-1059	286.26	238.33	-967.7	289.77	211.81	-1112.3	174.81	248.35	-1100.8	172.38	328.99	-1177.7	189.29	283.39	-1185.8	172.14	321.96	-1193.8	161.09	260.93	-1079.8	44.471	243.59	-1055.6	57.937	350.69	-1001.5	43.985	309.72	-804.7	1371.3	369.21	-880.86	1119.1	358.77
161	0.66667	-615.79	1062.7	370.98	-729.23	1297.9	515.32	-709.66	1307.3	225.48	-678.8	1594.3	376.28	-634.6	907.41	460.55	-646.33	890.87	246.75	-855.54	938.6	418.43	-865.01	942.66	346.75	-686.17	794.68	553.03	-788.4	797.51	168.5	-740.96	945.09	525.87	-772.7	941.11	191.03	-884.41	892.04	379.36	-603.3	605.48	523.81	-528.74	556.16	474.53	-586.76	519.52	499.72	-549.94	640.81	496.99	-542.3	457.48	477.51	-568.29	445.94	336.21	-588.89	243.05	464.34	-506.76	175.2	434.51	-572.3	172.23	450.69	-517.3	242.52	453.25	-546.07	86.769	433.54	-542.52	101.13	349	-608.69	70.697	380.27	-594.37	39.006	352.71	-602.23	40.366	416.76	-438.9	41.733	450.88	-411.05	37.309	343.24	-362.4	67.993	395.96	-850.31	587.13	207.58	-788.78	495.86	194.97	-863.07	498.75	225.95	-782.82	590.07	180.01	-827.4	420.68	203.47	-809.95	409.85	340.03	-1000.8	341.59	220.31	-1007.6	231.48	226.65	-1051	288.97	237.67	-959.9	291.13	210.68	-1105.8	178.3	247.28	-1094.1	175.64	327.88	-1170.1	195.13	282.31	-1178.9	178.69	321.11	-1187.4	167.55	260.02	-1078.1	46.561	243.24	-1053.2	59.737	350.17	-1000.1	43.291	309.25	-799	1371.6	370.22	-875.07	1119.4	359.59
